<svg xmlns="http://www.w3.org/2000/svg" xmlns:xlink="http://www.w3.org/1999/xlink" width="128" height="128" viewBox="0 0 128 128"><defs><style>.a{fill:#f0f5f2;}.b{fill:#fff;}.c{clip-path:url(#a);}.d{fill:#dde4e0;}.e{fill:url(#b);}</style><clipPath id="a"><path class="a" d="M107.86,53.64a15,15,0,0,0-7.5-13L62.86,19,25.36,40.65a15,15,0,0,0-7.5,13h0V75a30,30,0,0,0,15,26,60,60,0,0,0,60,0,30,30,0,0,0,15-26V53.64h0Zm-45,21.65L25.36,53.64a7.52,7.52,0,0,1,3.75-6.5L62.86,27.66,96.61,47.15a7.52,7.52,0,0,1,3.75,6.5Z"/></clipPath><radialGradient id="b" cx="62.86" cy="75.19" r="44.96" gradientTransform="translate(125.72 131.59) rotate(180) scale(1 0.75)" gradientUnits="userSpaceOnUse"><stop offset="0" stop-color="#fff"/><stop offset="0.17" stop-color="#fff" stop-opacity="0.78"/><stop offset="0.4" stop-color="#fff" stop-opacity="0.5"/><stop offset="0.6" stop-color="#fff" stop-opacity="0.29"/><stop offset="0.78" stop-color="#fff" stop-opacity="0.13"/><stop offset="0.92" stop-color="#fff" stop-opacity="0.04"/><stop offset="1" stop-color="#fff" stop-opacity="0"/></radialGradient></defs><title>absents</title><rect class="b" width="128" height="128"/><path class="a" d="M107.86,53.64a15,15,0,0,0-7.5-13L62.86,19,25.36,40.65a15,15,0,0,0-7.5,13h0V75a30,30,0,0,0,15,26,60,60,0,0,0,60,0,30,30,0,0,0,15-26V53.64h0Zm-45,21.65L25.36,53.64a7.52,7.52,0,0,1,3.75-6.5L62.86,27.66,96.61,47.15a7.52,7.52,0,0,1,3.75,6.5Z"/><g class="c"><polygon class="d" points="128 55.1 0 129 0 128 128 54.1 128 55.1"/><polygon class="d" points="128 59.1 0 133 0 132 128 58.1 128 59.1"/><polygon class="d" points="128 63.1 0 137 0 136 128 62.1 128 63.1"/><polygon class="d" points="128 67.1 0 141 0 140 128 66.1 128 67.1"/><polygon class="d" points="128 71.1 0 145 0 144 128 70.1 128 71.1"/><polygon class="d" points="128 75.1 0 149 0 148 128 74.1 128 75.1"/><polygon class="d" points="128 79.1 0 153 0 152 128 78.1 128 79.1"/><polygon class="d" points="128 81.1 0 155 0 154 128 80.1 128 81.1"/><polygon class="d" points="128 83.1 0 157 0 156 128 82.1 128 83.1"/><polygon class="d" points="128 51.1 0 125 0 124 128 50.1 128 51.1"/><polygon class="d" points="128 47.1 0 121 0 120 128 46.1 128 47.1"/><polygon class="d" points="128 43.1 0 117 0 116 128 42.1 128 43.1"/><polygon class="d" points="128 39.1 0 113 0 112 128 38.1 128 39.1"/><polygon class="d" points="128 35.1 0 109 0 108 128 34.1 128 35.1"/><polygon class="d" points="128 31.1 0 105 0 104 128 30.1 128 31.1"/><polygon class="d" points="128 27.1 0 101 0 100 128 26.1 128 27.1"/><polygon class="d" points="128 23.1 0 97 0 96 128 22.1 128 23.1"/><polygon class="d" points="128 19.1 0 93 0 92 128 18.1 128 19.1"/><polygon class="d" points="128 15.1 0 89 0 88 128 14.1 128 15.1"/><polygon class="d" points="128 11.1 0 85 0 84 128 10.1 128 11.1"/><polygon class="d" points="128 7.1 0 81 0 80 128 6.1 128 7.1"/><polygon class="d" points="128 3.1 0 77 0 76 128 2.1 128 3.1"/><polygon class="d" points="128 -1 0 72.9 0 71.9 128 -2 128 -1"/><polygon class="d" points="128 -5 0 68.9 0 67.9 128 -6 128 -5"/><polygon class="d" points="128 -9 0 64.9 0 63.9 128 -10 128 -9"/><polygon class="d" points="128 -13 0 60.9 0 59.9 128 -14 128 -13"/><polygon class="d" points="128 -17 0 56.9 0 55.9 128 -18 128 -17"/><polygon class="d" points="128 -19 0 54.9 0 53.9 128 -20 128 -19"/></g><path class="e" d="M62.86,75.3l44.45-25.66a14.93,14.93,0,0,1,.55,4V75a30,30,0,0,1-15,26,60,60,0,0,1-30,8"/></svg>