<svg width="32" height="32" viewBox="0 0 32 32" fill="none" xmlns="http://www.w3.org/2000/svg">
<g transform="translate(6 3)">
  <path d="M3.83682 17.1674L9.99992 20.7871L16.163 17.1674L17.2427 17.8101C17.4177 17.9147 17.5601 18.0632 17.6579 18.2386C17.7044 18.3219 17.7401 18.4101 17.7649 18.5011L9.99992 23.0615L2.23496 18.5011C2.25971 18.4101 2.29545 18.3219 2.34191 18.2386L3.83682 17.1674Z" fill="white"/>
  <path d="M9.99954 18.134L3.59277 14.3713L2.34191 15.3203C2.29545 15.4036 2.25971 15.4918 2.23496 15.5827L9.99992 20.1432L17.7649 15.5827C17.7401 15.4918 17.7044 15.4036 17.6579 15.3203C17.5601 15.1448 17.4177 14.9964 17.2427 14.8918L16.3782 14.3877L9.99954 18.134Z" fill="white"/>
  <path d="M3.49995 11.7963L9.99954 15.6136L16.4991 11.7963L17.2424 12.2387C17.4173 12.3433 17.5597 12.4918 17.6575 12.6672C17.704 12.7505 17.7397 12.8387 17.7645 12.9297L9.99954 17.4901L2.23458 12.9297C2.25933 12.8387 2.29507 12.7505 2.34153 12.6672L3.49995 11.7963Z" fill="white"/>
  <path d="M9.99992 12.8279L3.72447 9.14221L2.34153 10.1468C2.29507 10.2301 2.25933 10.3183 2.23458 10.4093L9.99954 14.9697L17.7645 10.4093C17.7397 10.3183 17.704 10.2301 17.6575 10.1468C17.5597 9.97137 17.4173 9.82291 17.2424 9.71831L16.275 9.14243L9.99992 12.8279Z" fill="white"/>
  <path fill-rule="evenodd" clip-rule="evenodd" d="M19.9998 7.93371V17.1238C19.9997 18.0545 20.0246 18.9509 19.557 19.7844C19.2641 20.3065 18.8417 20.7389 18.333 21.0371L9.99982 26L1.66666 21.0371C1.16074 20.7356 0.740528 20.3025 0.448031 19.7812C0.156945 19.2622 0.0194114 18.6854 4.16307e-05 18.0864V7.93371C-0.00289756 7.33068 0.149845 6.73769 0.442721 6.2156C0.735597 5.69352 1.15808 5.26114 1.66675 4.96286L9.99992 0L18.3331 4.96286C18.839 5.26438 19.2592 5.69747 19.5517 6.21882C19.8442 6.74018 19.9987 7.33152 19.9998 7.93371ZM1.66675 7.93371L3.17825 8.82144L2.49968 9.22542C2.24577 9.37719 2.0351 9.59516 1.8888 9.85741C1.74251 10.1197 1.6658 10.4169 1.66637 10.7194L2.95374 11.4755L2.49968 11.7458C2.24577 11.8976 2.0351 12.1156 1.8888 12.3778C1.74251 12.6401 1.6658 12.9374 1.66637 13.2398L3.06144 14.0592L2.50006 14.3989C2.24615 14.5507 2.03548 14.7686 1.88918 15.0309C1.74289 15.2931 1.66618 15.5904 1.66675 15.8929L3.29061 16.8466L2.50006 17.3172C2.24615 17.469 2.03548 17.687 1.88918 17.9492C1.74289 18.2115 1.66618 18.5088 1.66675 18.8113L9.99992 23.7054L18.3331 18.8113C18.3337 18.5088 18.257 18.2115 18.1107 17.9492C17.9645 17.687 17.7538 17.469 17.4998 17.3172L16.7092 16.8466L18.3331 15.8929C18.3337 15.5904 18.257 15.2931 18.1107 15.0309C17.9645 14.7686 17.7538 14.5507 17.4998 14.3989L16.887 14.0889L18.3327 13.2398C18.3333 12.9374 18.2566 12.6401 18.1103 12.3778C17.9641 12.1156 17.7534 11.8976 17.4994 11.7458L17.0453 11.4755L18.3327 10.7194C18.3333 10.4169 18.2566 10.1197 18.1103 9.85741C17.9641 9.59516 17.7534 9.37719 17.4994 9.22542L16.8212 8.82166L18.3331 7.93371C18.3337 7.63123 18.257 7.33394 18.1107 7.07169C17.9645 6.80944 17.7538 6.59148 17.4998 6.4397L9.99992 1.97484L2.50006 6.4397C2.24615 6.59148 2.03548 6.80944 1.88918 7.07169C1.74289 7.33394 1.66618 7.63123 1.66675 7.93371Z" fill="white"/>
</g>
</svg>
