<svg width="77" height="92" viewBox="0 0 77 92" fill="none" xmlns="http://www.w3.org/2000/svg">
<g id="Subtract">
<path d="M14.5995 60.7461L38.0507 73.5542L61.5019 60.7461L65.6104 63.0205C66.276 63.3906 66.8179 63.916 67.1902 64.5368C67.367 64.8315 67.503 65.1435 67.5971 65.4654L38.0507 81.6023L8.50426 65.4654C8.59842 65.1435 8.73443 64.8315 8.91121 64.5368L14.5995 60.7461Z" fill="white"/>
<path d="M38.0493 64.1665L13.6709 50.8521L8.91121 54.2102C8.73443 54.5049 8.59842 54.817 8.50426 55.1389L38.0507 71.2758L67.5971 55.1389C67.503 54.817 67.367 54.5049 67.1902 54.2102C66.8179 53.5894 66.276 53.0641 65.6104 52.6939L62.3209 50.9104L38.0493 64.1665Z" fill="white"/>
<path d="M13.3177 41.7407L38.0493 55.2481L62.7808 41.7407L65.6089 43.3062C66.2746 43.6764 66.8164 44.2017 67.1888 44.8225C67.3655 45.1172 67.5015 45.4293 67.5957 45.7512L38.0493 61.8881L8.50282 45.7512C8.59698 45.4293 8.73299 45.1172 8.90977 44.8225L13.3177 41.7407Z" fill="white"/>
<path d="M38.0507 45.391L14.172 32.3493L8.90977 35.9041C8.73299 36.1988 8.59698 36.5109 8.50282 36.8328L38.0493 52.9697L67.5957 36.8328C67.5015 36.5109 67.3655 36.1988 67.1888 35.9041C66.8164 35.2833 66.2746 34.758 65.6089 34.3879L61.928 32.3501L38.0507 45.391Z" fill="white"/>
<path fill-rule="evenodd" clip-rule="evenodd" d="M76.1012 28.0731V60.5917C76.1009 63.8851 76.1955 67.0571 74.4164 70.0063C73.302 71.8537 71.6944 73.3837 69.7589 74.4391L38.0503 92L6.3418 74.4391C4.41672 73.3722 2.81778 71.8397 1.7048 69.9949C0.597193 68.1587 0.0738623 66.1175 0.000158409 63.9979V28.0731C-0.0110255 25.9393 0.570177 23.8411 1.6846 21.9937C2.79902 20.1463 4.40662 18.6163 6.34216 17.5609L38.0507 0L69.7592 17.5609C71.6843 18.6278 73.2833 20.1603 74.3962 22.0051C75.5092 23.8499 76.0969 25.9423 76.1012 28.0731ZM6.34216 28.0731L12.0936 31.2143L9.51153 32.6438C8.54539 33.1808 7.74375 33.9521 7.18708 34.8801C6.63041 35.808 6.33855 36.86 6.34071 37.9303L11.2393 40.6056L9.51153 41.5622C8.54539 42.0992 7.74375 42.8705 7.18708 43.7984C6.63041 44.7264 6.33855 45.7784 6.34071 46.8486L11.6491 49.7479L9.51298 50.9499C8.54683 51.4869 7.7452 52.2582 7.18853 53.1861C6.63186 54.1141 6.33999 55.1661 6.34216 56.2364L12.5211 59.6111L9.51298 61.2764C8.54683 61.8135 7.7452 62.5847 7.18853 63.5127C6.63186 64.4406 6.33999 65.4926 6.34216 66.5629L38.0507 83.8807L69.7592 66.5629C69.7614 65.4926 69.4695 64.4406 68.9129 63.5127C68.3566 62.5847 67.5549 61.8135 66.5884 61.2764L63.5803 59.611L69.7592 56.2364C69.7614 55.1661 69.4695 54.1141 68.9129 53.1861C68.3566 52.2582 67.5549 51.4869 66.5884 50.9499L64.2568 49.853L69.7578 46.8486C69.76 45.7784 69.4681 44.7264 68.9114 43.7984C68.3551 42.8705 67.5535 42.0992 66.587 41.5622L64.8593 40.6056L69.7578 37.9303C69.76 36.86 69.4681 35.808 68.9114 34.8801C68.3551 33.9521 67.5535 33.1808 66.587 32.6438L64.0064 31.2151L69.7592 28.0731C69.7614 27.0028 69.4695 25.9509 68.9129 25.0229C68.3566 24.0949 67.5549 23.3237 66.5884 22.7866L38.0507 6.9879L9.51298 22.7866C8.54683 23.3237 7.7452 24.0949 7.18853 25.0229C6.63186 25.9509 6.33999 27.0028 6.34216 28.0731Z" fill="white"/>
</g>
</svg>
