<svg width="32" height="32" viewBox="0 0 32 32" fill="none" xmlns="http://www.w3.org/2000/svg">
  <path id="Union" fill-rule="evenodd" clip-rule="evenodd" d="M19.9998 7.32343V11.8253L19.9996 14.4169L19.9998 15.8065L19.9996 16.6766C20.0026 17.2332 19.8499 17.7806 19.557 18.2625C19.264 18.7444 18.8416 19.1436 18.333 19.4189L9.99976 24L1.66663 19.4189C1.16064 19.1406 0.740479 18.7408 0.447998 18.2596C0.187256 17.8306 0.0362549 17.3503 0.0057373 16.8574C0.00390625 16.8545 0.00195312 16.8516 0.00012207 16.8487V16.6989C0.00012207 16.6915 0 16.684 0 16.6766V14.2433L0.00012207 11.8411V7.32343C-0.00280762 6.76678 0.149902 6.21941 0.442749 5.73747C0.735718 5.25555 1.1582 4.85643 1.66675 4.5811L10 0L18.3331 4.5811C18.8391 4.85942 19.2593 5.2592 19.5518 5.74045C19.8442 6.22169 19.9988 6.76756 19.9998 7.32343ZM1.66675 7.32343L10 11.8411L18.3331 7.32343C18.3337 7.04422 18.257 6.76979 18.1107 6.52771C17.9645 6.28564 17.7538 6.08444 17.4999 5.94434L10 1.82294L2.50012 5.94434C2.24622 6.08444 2.03552 6.28564 1.88928 6.52771C1.74292 6.76979 1.66626 7.04422 1.66675 7.32343Z"
    transform="translate(6.00037 4)" fill="url(#paint0_linear)" />
  <path id="logo" d="M8.33318 10.0182L2.9907e-06 5.50049C-0.000552062 5.22129 0.0761624 4.94686 0.222438 4.70478C0.368713 4.46271 0.579397 4.26151 0.833321 4.12141L8.33318 0L15.833 4.12141C16.087 4.26151 16.2977 4.46271 16.4439 4.70478C16.5902 4.94686 16.6669 5.22129 16.6664 5.50049L8.33318 10.0182Z"
    transform="translate(7.66675 15.8141)" fill="white" fill-opacity="0.1" />
  <path id="logo_2" d="M8.33318 10.0182L2.9907e-06 5.50049C-0.000552062 5.22129 0.0761624 4.94686 0.222438 4.70478C0.368713 4.46271 0.579397 4.26151 0.833321 4.12141L8.33318 0L15.833 4.12141C16.087 4.26151 16.2977 4.46271 16.4439 4.70478C16.5902 4.94686 16.6669 5.22129 16.6664 5.50049L8.33318 10.0182Z"
    transform="translate(7.66675 13.1182)" fill="white" fill-opacity="0.2" />
  <path id="logo_3" d="M8.33318 10.0182L2.9907e-06 5.50049C-0.000552062 5.22129 0.0761623 4.94686 0.222438 4.70478C0.368713 4.46271 0.579396 4.26151 0.833321 4.12141L8.33318 0L15.833 4.12141C16.087 4.26151 16.2977 4.46271 16.4439 4.70478C16.5902 4.94686 16.6669 5.22129 16.6664 5.50049L8.33318 10.0182Z"
    transform="translate(7.66675 10.6865)" fill="white" fill-opacity="0.3" />
  <path id="logo_4" d="M8.33318 10.0182L2.9907e-06 5.50049C-0.000552062 5.22129 0.0761624 4.94686 0.222438 4.70478C0.368713 4.46271 0.579397 4.26151 0.833321 4.12141L8.33318 0L15.833 4.12141C16.087 4.26151 16.2977 4.46271 16.4439 4.70478C16.5902 4.94686 16.6669 5.22129 16.6664 5.50049L8.33318 10.0182Z"
    transform="translate(7.66675 8.25471)" fill="white" fill-opacity="0.4" />
  <path id="logo (Stroke)" fill-rule="evenodd" clip-rule="evenodd" d="M9.99986 11.2468L2.23494 7.03713C2.25965 6.95315 2.29542 6.87175 2.34188 6.79486C2.4397 6.63297 2.58208 6.49596 2.75668 6.39953L2.75708 6.39931L9.99986 2.41918L17.2426 6.39931L17.2429 6.39944C17.4175 6.49587 17.56 6.63291 17.6578 6.79486C17.7043 6.87175 17.7401 6.95315 17.7648 7.03713L9.99986 11.2468ZM17.4997 5.94434L9.99986 1.82293L2.5 5.94434C2.24607 6.08444 2.03539 6.28564 1.88911 6.52771C1.74284 6.76979 1.66612 7.04422 1.66668 7.32342L9.99986 11.8411L18.333 7.32342C18.3336 7.04422 18.2569 6.76979 18.1106 6.52771C17.9643 6.28564 17.7536 6.08444 17.4997 5.94434Z"
    transform="translate(6 4)" fill="#774FCD" />
  <defs>
    <linearGradient id="paint0_linear" x2="1" gradientUnits="userSpaceOnUse" gradientTransform="translate(-2.58358 23.9993) scale(25.2513 23.9993) rotate(-90)">
      <stop stop-color="#228BA3" />
      <stop offset="1" stop-color="#774FCD" />
    </linearGradient>
  </defs>
</svg>
