<svg id="Stage" xmlns="http://www.w3.org/2000/svg" viewBox="0 0 360 160">
  <title>Nested</title>
  <g id="Nested_Logotype_English_with_Guides" data-name="Nested Logotype English with Guides">
    <path id="NstEnLogotype" d="M61.08,125.5a2.75,2.75,0,0,1-2.8-2.61V93.19c-.06-16-2-19.5-7.24-21.08C47.42,72,39.6,73.29,32.79,75.54V124.9c-2.27.23-5.81.6-8,.6A2.75,2.75,0,0,1,22,122.9V69.54c8.5-3.5,20.36-7.91,29.56-7.91,17.21,0,17.51,15.19,17.51,31.43V124.9C67.22,125.09,63.34,125.5,61.08,125.5Zm194.7-.28c-14.22,0-21.26-9.14-22.83-23.45-1.61-14.61,1.36-27.08,7.94-33.36,5.53-5.15,11.67-7.39,19.77-7.26,12.59.25,17.87,7.58,18.61,14.35.44,4,.39,11.52-4.88,16.41-5.9,5.49-17.48,8.2-31.12,7.31,1.11,9,3.44,14.48,11.16,15.86,8,.11,15.76-1.91,23.38-4.14,1.8,5.22,2.35,8.94-3.32,10.9A58.45,58.45,0,0,1,255.78,125.22Zm-44.4,0c-8.29,0-12.85-4.69-13.56-13.93-.69-8.57-.51-18.26-.51-39.66H187L187.7,63h9.58a124.61,124.61,0,0,0-.77-15,63.1,63.1,0,0,1,6.4-.46,4.19,4.19,0,0,1,4.46,4.09c.16,2,.26,4.84.26,7.53V63h18.73l-.66,8.62H207.62c0,21.39.2,34.09.45,37.74.34,4.86,1.78,6,3.84,6.11,4.15,0,9.66-1.51,13.4-2.59,1.43,4.06,2.58,7.91-2.23,10A32.51,32.51,0,0,1,211.38,125.22Zm98.87-.17c-8.24,0-18-2.36-20-20.8-1.81-16.27.93-29.26,7.51-35.66a26.72,26.72,0,0,1,18.78-7.44A33.65,33.65,0,0,1,327.05,63c-1-16.53-4.26-21.92-18-23.31.81-5,1-8.5,7.06-8.08,16.68,1.12,21,17.6,21.52,34.38.68,24.21,1.23,43.33-8.34,52.47C324.92,122.72,318.14,125.05,310.25,125.05Zm-6.08-50.23c-4.61,7.25-4.15,20.57-3.46,27.9,1.1,11.21,5.67,12.75,10.44,12.75,4.94,0,9.47-1.47,12.45-4,4-6.35,4.48-19.46,3.87-38.51a29.45,29.45,0,0,0-11-2A20.17,20.17,0,0,0,304.17,74.83ZM243,90.05c8.09.63,18.49-.31,24.69-4.78a16.81,16.81,0,0,0,.83-8.32c-.73-5-5.36-6.09-9.11-6.14A19.53,19.53,0,0,0,247,74.75C245,78.1,243.52,84,243,90.05Zm-137.7,35.17c-14.22,0-21.26-9.14-22.83-23.45-1.61-14.61,1.36-27.08,7.94-33.36C96,63.26,102.11,61,110.22,61.15c12.59.25,17.87,7.58,18.61,14.35.44,4,.39,11.52-4.88,16.41-5.9,5.49-17.48,8.2-31.12,7.31,1.11,9,3.44,14.48,11.16,15.86,8,.11,15.76-1.91,23.38-4.14,1.8,5.22,2.35,8.94-3.32,10.9A58.45,58.45,0,0,1,105.34,125.22ZM92.59,90.05c8.09.63,18.49-.31,24.69-4.78a16.81,16.81,0,0,0,.83-8.32c-.73-5-5.36-6.09-9.11-6.14a19.53,19.53,0,0,0-12.44,3.93C94.6,78.1,93.08,84,92.59,90.05Zm51.56,33.53c-5.21-1.9-4.12-6-2.76-11.38a48.64,48.64,0,0,0,17.16,2.88,33.19,33.19,0,0,0,9.71-1.37,10.67,10.67,0,0,0,1.76-7c-.93-11.41-27.8-7.78-29.27-25.66a17.19,17.19,0,0,1,4.8-13.95c4.63-4.48,11.66-5.72,16.74-6a46,46,0,0,1,11.15,1.24c5.9,1.56,6.21,6,3.88,11.73-4.74-1.43-9.88-2.73-14.88-2.67a33.13,33.13,0,0,0-10,1.52,11.77,11.77,0,0,0-1.06,6.37c.7,9.23,27.7,5.7,29.32,25.19.43,5.53-1.42,11.58-4.51,14.7-4.64,4.84-11.66,5.82-18.73,6C153.52,125.28,147.68,124.93,144.15,123.58Z"/>
  </g>
</svg>
