<svg id="Stage" xmlns="http://www.w3.org/2000/svg" viewBox="0 0 360 160">
  <title>Nested</title>
  <g id="Nested_Logotype_Persian_with_Guides" data-name="Nested Logotype Persian with Guides">
    <path id="NstPrLogotype" d="M151.61,125c-19.28,0-35.82-1-42.69-13.1C104,119.69,96.41,124,87.44,124c-9.34,0-15.52-4-18.36-11.85C62.54,119.65,52.34,124,40.94,124c-13.1,0-18.44-5.3-18.44-18.3V94.86c2.39-.32,5.13-.71,6.39-.71a2.27,2.27,0,0,1,2.33,2.08V104c0,6.36,3,8.62,11.24,8.62,9.37,0,18.42-3.55,24.25-9.5.07-1.24.07-2.56.07-3.95,0-13.75-1.14-23.28-6.91-37.22,6.78-4.17,10.44-5.76,12.55,1.73C75.23,73.5,76.14,82,76.14,98.51c0,10.15,4,14.68,12.83,14.68a17.13,17.13,0,0,0,14.68-8.13,56.83,56.83,0,0,0,.7-10.6V75.22c2.67-.24,5.62-.52,7.46-.52a2.23,2.23,0,0,1,2.3,2.08V94c0,14.93,10.4,20.22,39.75,20.22,35.35,0,57.33-8.63,57.36-22.53V75.22c2.58-.23,5.61-.52,7.45-.52A2.22,2.22,0,0,1,221,76.78V99.47c0,9.1,3.93,13.72,11.67,13.72a13.61,13.61,0,0,0,12.65-8.1,72.19,72.19,0,0,0,.79-11.65l0-18.14c2.53-.23,5.58-.52,7.46-.52a2.25,2.25,0,0,1,2.33,2.08v23.23c0,8.44,7.9,13.1,13.36,13.1,3,0,8.62-6.26,8.62-14.82V62.15c2.91-.25,5.67-.52,7.49-.52a2.23,2.23,0,0,1,2.3,2.08V95.87c0,15.26,9.66,17.32,19.11,17.32,8.13,0,15.24-1.14,19.58-3.15a59.74,59.74,0,0,0,.84-11,89.42,89.42,0,0,0-5.09-28.68c6.73-4.12,10.45-5.72,12.52,1.77a89.75,89.75,0,0,1,2.84,23.75c0,8.49-2.36,16.34-6.16,20.5-4.86,5.29-12.62,7.54-25.94,7.54-11.92,0-19.78-3.85-23.38-11.44-3.12,6.62-9.94,11.44-14.34,11.44-7.32,0-15.23-4.85-17.93-10.81A21.34,21.34,0,0,1,231.52,124c-7.55,0-16.88-3-19.08-17.06C200.6,122.91,173.79,125,151.61,125ZM312.88,67.73H301.21l.69-10.21h11.68Zm-190-1.41H94.38l.6-8.8h28.58Z" style="fill: #14d769"/>
  </g>
</svg>
